<svg xmlns="http://www.w3.org/2000/svg" xmlns:xlink="http://www.w3.org/1999/xlink" viewBox="0 0 118.27 126.54"><defs><style>.cls-1{fill:#333;}.cls-2{fill:url(#linear-gradient);}</style><linearGradient id="linear-gradient" x1="233.2" y1="-144.9" x2="233.2" y2="-209.85" gradientTransform="translate(-174.06 209.85)" gradientUnits="userSpaceOnUse"><stop offset="0" stop-color="#6d52a1"/><stop offset="0.12" stop-color="#2976bb"/><stop offset="0.26" stop-color="#00ac8d"/><stop offset="0.41" stop-color="#02af56"/><stop offset="0.59" stop-color="#fdde29"/><stop offset="0.77" stop-color="#e35b25"/><stop offset="0.83" stop-color="#e05725"/><stop offset="0.89" stop-color="#d84c25"/><stop offset="0.95" stop-color="#c93925"/><stop offset="1" stop-color="#b62025"/></linearGradient></defs><title>Asset 2</title><g id="Layer_2" data-name="Layer 2"><g id="Layer_1-2" data-name="Layer 1"><path class="cls-1" d="M59.13,124.63A57.21,57.21,0,0,1,31.58,17.27,1.86,1.86,0,0,1,32.5,17a2,2,0,0,1,1,.26,1.93,1.93,0,0,1,.94,1.65V32.05a1.89,1.89,0,0,1-.76,1.52,42.36,42.36,0,1,0,51,0,1.89,1.89,0,0,1-.76-1.52V18.94a1.93,1.93,0,0,1,.94-1.65,2,2,0,0,1,1-.26,1.89,1.89,0,0,1,.92.24A57.21,57.21,0,0,1,59.13,124.63Z"/><path class="cls-1" d="M85.77,18.94a55.32,55.32,0,1,1-53.27,0V32.05a44.27,44.27,0,1,0,53.27,0V18.94m0-3.82A3.82,3.82,0,0,0,82,18.94V32.05a3.81,3.81,0,0,0,1.52,3.05A40.45,40.45,0,1,1,18.69,67.4,40.12,40.12,0,0,1,34.8,35.1a3.81,3.81,0,0,0,1.52-3.05V18.94a3.82,3.82,0,0,0-3.82-3.82,3.91,3.91,0,0,0-1.85.47,59.14,59.14,0,1,0,57,0,3.87,3.87,0,0,0-1.84-.47Z"/><rect class="cls-2" x="50.41" width="17.45" height="64.96" rx="4.85"/></g></g></svg>